# xmcd
#
# Track frame offsets:
#	150
#	18555
#	32577
#	44075
#	71350
#	91040
#	124587
#	143580
#	178335
#	206120
#	221867
#	246920
#	262915
#	304140
#
# Disc length: 4208 seconds
#
# Revision: 2
# Processed by: cddbd v1.4PL0 Copyright (c) Steve Scherf et al.
# Submitted via: Gronk 1.4
#
DISCID=cc106e0e
DTITLE=Colin Dussalt - His Blues Project and Friends
DYEAR=1900
DGENRE=blues
TTITLE0=Working Blues Band
TTITLE1=Four Word Five Letter Blues
TTITLE2=Wheels, Dust and Diesel (The Mover's Song)
TTITLE3=Can't Get You Off Of My Mind
TTITLE4=Friends and Lovers
TTITLE5=When I Met You Baby
TTITLE6=Those Were The Times
TTITLE7=Howard Stern's FCC Blues
TTITLE8=House Of The Rising Sun
TTITLE9=Travelin' Music
TTITLE10=Can't Get You Off Of My Mind Blues
TTITLE11=Messin With The Kid
TTITLE12=Blues For Willie
TTITLE13=Old Hulks
EXTD=Local Cleveland Artist
EXTT0=
EXTT1=
EXTT2=
EXTT3=
EXTT4=
EXTT5=
EXTT6=
EXTT7=
EXTT8=
EXTT9=
EXTT10=
EXTT11=
EXTT12=
EXTT13=
PLAYORDER=
